<svg xmlns="http://www.w3.org/2000/svg" width="1200" height="506" viewBox="0 0 1200 506" role="img" aria-labelledby="title desc">
  <title id="title">320 MP3 Fast Encoder benchmark comparison</title>
  <desc id="desc">Benchmark table comparing macOS, Linux, and Windows conversion speed.</desc>
  <defs>
    <linearGradient id="bg" x1="0" y1="0" x2="1" y2="1">
      <stop offset="0" stop-color="#05080d"/>
      <stop offset="0.52" stop-color="#07131d"/>
      <stop offset="1" stop-color="#05080d"/>
    </linearGradient>
    <linearGradient id="line" x1="0" y1="0" x2="1" y2="0">
      <stop offset="0" stop-color="#00d6ff" stop-opacity="0.2"/>
      <stop offset="0.5" stop-color="#00d6ff"/>
      <stop offset="1" stop-color="#00f0a8"/>
    </linearGradient>
    <filter id="glow" x="-30%" y="-30%" width="160%" height="160%">
      <feGaussianBlur stdDeviation="4" result="blur"/>
      <feMerge>
        <feMergeNode in="blur"/>
        <feMergeNode in="SourceGraphic"/>
      </feMerge>
    </filter>
  </defs>
  <rect width="1200" height="506" rx="24" fill="url(#bg)"/>
  <rect x="20" y="20" width="1160" height="466" rx="18" fill="none" stroke="#00d6ff" stroke-opacity="0.28"/>
  <g opacity="0.18" stroke="#00d6ff" stroke-width="1">
    <path d="M70 96H1130M70 152H1130M70 208H1130M70 264H1130M70 320H1130M70 376H1130M70 432H1130"/>
    <path d="M150 56V452M300 56V452M450 56V452M600 56V452M750 56V452M900 56V452M1050 56V452"/>
  </g>
  <text x="72" y="74" fill="#00d6ff" font-family="Consolas, 'Share Tech Mono', monospace" font-size="23" letter-spacing="4">MULTI-ENVIRONMENT BENCHMARK</text>
  <text x="72" y="124" fill="#ffffff" font-family="Orbitron, Arial, sans-serif" font-size="40" font-weight="900">3:00 WAV TO 320kbps MP3</text>
  <text x="72" y="160" fill="#a7f3ff" font-family="Consolas, monospace" font-size="20">PCM 16-bit stereo 44.1kHz | libmp3lame | CBR | no filters | 5 runs</text>
  <rect x="70" y="196" width="1060" height="216" rx="14" fill="#03151e" stroke="#00d6ff" stroke-opacity="0.46"/>
  <rect x="70" y="196" width="1060" height="54" rx="14" fill="#062535"/>
  <path d="M70 250H1130M70 304H1130M70 358H1130" stroke="#00d6ff" stroke-opacity="0.22"/>
  <path d="M356 196V412M552 196V412M704 196V412M856 196V412M1008 196V412" stroke="#00d6ff" stroke-opacity="0.22"/>
  <g font-family="Consolas, 'Share Tech Mono', monospace" font-size="17" fill="#90eaff" letter-spacing="1.5">
    <text x="92" y="231">ENVIRONMENT</text>
    <text x="378" y="231">CPU</text>
    <text x="592" y="231">AVG</text>
    <text x="744" y="231">BEST</text>
    <text x="896" y="231">WORST</text>
    <text x="1032" y="231">SPEED</text>
  </g>
  <g font-family="Consolas, monospace" font-size="18" fill="#ffffff">
    <text x="92" y="285" fill="#8fffe1">macOS</text>
    <text x="378" y="285">Apple M1 Virtual</text>
    <text x="592" y="285">2.149s</text>
    <text x="744" y="285">2.004s</text>
    <text x="896" y="285">2.457s</text>
    <text x="1032" y="285" fill="#00f0a8" font-weight="700">83.8x</text>

    <text x="92" y="339" fill="#8fffe1">Linux</text>
    <text x="378" y="339">Xeon Platinum 8573C</text>
    <text x="592" y="339">2.267s</text>
    <text x="744" y="339">2.244s</text>
    <text x="896" y="339">2.299s</text>
    <text x="1032" y="339" fill="#00f0a8" font-weight="700">79.4x</text>

    <text x="92" y="393" fill="#8fffe1">Windows</text>
    <text x="378" y="393">AMD EPYC 7763</text>
    <text x="592" y="393">2.416s</text>
    <text x="744" y="393">2.364s</text>
    <text x="896" y="393">2.523s</text>
    <text x="1032" y="393" fill="#00f0a8" font-weight="700">74.5x</text>
  </g>
  <path d="M70 432H1130" stroke="url(#line)" stroke-width="3" filter="url(#glow)"/>
  <text x="72" y="466" fill="#7f98a8" font-family="Consolas, monospace" font-size="17">Results vary by CPU, storage, source file, FFmpeg build, and system load. Lower time is better.</text>
</svg>